<svg xmlns="http://www.w3.org/2000/svg" width="805" height="600"><rect width="805" height="600" x="0" y="0" fill="#FFFFFF" id="backgorund"/><g id="viz"><clipPath id="serieClipPath"><rect x="-50" y="-20" width="805" height="600"/></clipPath><g transform="translate(0,0)"><g transform="translate(50,20)" clip-path="url(#serieClipPath)"><g id="axis"><g transform="translate(0,550)" fill="none" font-size="10" font-family="sans-serif" text-anchor="middle"><path class="domain" stroke="currentColor" d="M0,6V0H740V6"/><g class="tick" opacity="1" transform="translate(0,0)"><line stroke="currentColor" y2="6"/><text fill="currentColor" y="9" dy="0.71em">Mon 23</text></g><g class="tick" opacity="1" transform="translate(47.74193548387097,0)"><line stroke="currentColor" y2="6"/><text fill="currentColor" y="9" dy="0.71em">Wed 25</text></g><g class="tick" opacity="1" transform="translate(95.48387096774194,0)"><line stroke="currentColor" y2="6"/><text fill="currentColor" y="9" dy="0.71em">Fri 27</text></g><g class="tick" opacity="1" transform="translate(143.2258064516129,0)"><line stroke="currentColor" y2="6"/><text fill="currentColor" y="9" dy="0.71em">May 29</text></g><g class="tick" opacity="1" transform="translate(190.96774193548387,0)"><line stroke="currentColor" y2="6"/><text fill="currentColor" y="9" dy="0.71em">Tue 31</text></g><g class="tick" opacity="1" transform="translate(214.83870967741936,0)"><line stroke="currentColor" y2="6"/><text fill="currentColor" y="9" dy="0.71em">June</text></g><g class="tick" opacity="1" transform="translate(262.58064516129036,0)"><line stroke="currentColor" y2="6"/><text fill="currentColor" y="9" dy="0.71em">Fri 03</text></g><g class="tick" opacity="1" transform="translate(310.3225806451613,0)"><line stroke="currentColor" y2="6"/><text fill="currentColor" y="9" dy="0.71em">Jun 05</text></g><g class="tick" opacity="1" transform="translate(358.06451612903226,0)"><line stroke="currentColor" y2="6"/><text fill="currentColor" y="9" dy="0.71em">Tue 07</text></g><g class="tick" opacity="1" transform="translate(405.8064516129032,0)"><line stroke="currentColor" y2="6"/><text fill="currentColor" y="9" dy="0.71em">Thu 09</text></g><g class="tick" opacity="1" transform="translate(453.5483870967742,0)"><line stroke="currentColor" y2="6"/><text fill="currentColor" y="9" dy="0.71em">Sat 11</text></g><g class="tick" opacity="1" transform="translate(501.2903225806451,0)"><line stroke="currentColor" y2="6"/><text fill="currentColor" y="9" dy="0.71em">Mon 13</text></g><g class="tick" opacity="1" transform="translate(549.0322580645161,0)"><line stroke="currentColor" y2="6"/><text fill="currentColor" y="9" dy="0.71em">Wed 15</text></g><g class="tick" opacity="1" transform="translate(596.7741935483871,0)"><line stroke="currentColor" y2="6"/><text fill="currentColor" y="9" dy="0.71em">Fri 17</text></g><g class="tick" opacity="1" transform="translate(644.516129032258,0)"><line stroke="currentColor" y2="6"/><text fill="currentColor" y="9" dy="0.71em">Jun 19</text></g><g class="tick" opacity="1" transform="translate(692.258064516129,0)"><line stroke="currentColor" y2="6"/><text fill="currentColor" y="9" dy="0.71em">Tue 21</text></g><g class="tick" opacity="1" transform="translate(740,0)"><line stroke="currentColor" y2="6"/><text fill="currentColor" y="9" dy="0.71em">Thu 23</text></g><text x="740" dy="-5" text-anchor="end" style="font-family: Arial, sans-serif; font-size: 12px; fill: rgb(123, 123, 123); font-weight: bold;">日期</text></g><g transform="translate(0,0)" fill="none" font-size="10" font-family="sans-serif" text-anchor="end"><path class="domain" stroke="currentColor" d="M0,550V0"/><g class="tick" opacity="1" transform="translate(0,550)"><line stroke="currentColor" x2="-6"/><text fill="currentColor" x="-9" dy="0.32em">480</text></g><g class="tick" opacity="1" transform="translate(0,481.25)"><line stroke="currentColor" x2="-6"/><text fill="currentColor" x="-9" dy="0.32em">490</text></g><g class="tick" opacity="1" transform="translate(0,412.5)"><line stroke="currentColor" x2="-6"/><text fill="currentColor" x="-9" dy="0.32em">500</text></g><g class="tick" opacity="1" transform="translate(0,343.75)"><line stroke="currentColor" x2="-6"/><text fill="currentColor" x="-9" dy="0.32em">510</text></g><g class="tick" opacity="1" transform="translate(0,275)"><line stroke="currentColor" x2="-6"/><text fill="currentColor" x="-9" dy="0.32em">520</text></g><g class="tick" opacity="1" transform="translate(0,206.25)"><line stroke="currentColor" x2="-6"/><text fill="currentColor" x="-9" dy="0.32em">530</text></g><g class="tick" opacity="1" transform="translate(0,137.5)"><line stroke="currentColor" x2="-6"/><text fill="currentColor" x="-9" dy="0.32em">540</text></g><g class="tick" opacity="1" transform="translate(0,68.75)"><line stroke="currentColor" x2="-6"/><text fill="currentColor" x="-9" dy="0.32em">550</text></g><g class="tick" opacity="1" transform="translate(0,0)"><line stroke="currentColor" x2="-6"/><text fill="currentColor" x="-9" dy="0.32em">560</text></g><text x="4" text-anchor="start" dominant-baseline="hanging" style="font-family: Arial, sans-serif; font-size: 12px; fill: rgb(123, 123, 123); font-weight: bold;">收盤</text></g></g><g id="viz"><g><path d="M0,220C11.935483870967742,220,11.935483870967742,275,23.870967741935484,275C35.806451612903224,275,35.806451612903224,247.49999999999997,47.74193548387097,247.49999999999997C59.677419354838705,247.49999999999997,59.677419354838705,316.25,71.61290322580645,316.25C83.54838709677419,316.25,83.54838709677419,206.25,95.48387096774194,206.25C131.29032258064515,206.25,131.29032258064515,89.37499999999999,167.09677419354838,89.37499999999999C179.03225806451613,89.37499999999999,179.03225806451613,0,190.96774193548387,0C202.90322580645162,0,202.90322580645162,75.62499999999997,214.83870967741936,75.62499999999997C226.77419354838707,75.62499999999997,226.77419354838707,137.5,238.70967741935482,137.5C286.4516129032258,137.5,286.4516129032258,137.5,334.19354838709677,137.5C346.1290322580645,137.5,346.1290322580645,171.875,358.06451612903226,171.875C370,171.875,370,109.99999999999997,381.93548387096774,109.99999999999997C393.8709677419355,109.99999999999997,393.8709677419355,130.62500000000003,405.8064516129032,130.62500000000003C417.741935483871,130.62500000000003,417.741935483871,206.25,429.6774193548387,206.25C465.48387096774195,206.25,465.48387096774195,302.5,501.2903225806451,302.5C513.2258064516129,302.5,513.2258064516129,323.125,525.1612903225807,323.125C537.0967741935484,323.125,537.0967741935484,350.625,549.0322580645161,350.625C560.9677419354839,350.625,560.9677419354839,357.5,572.9032258064516,357.5C584.8387096774193,357.5,584.8387096774193,405.625,596.7741935483871,405.625C632.5806451612902,405.625,632.5806451612902,426.25,668.3870967741935,426.25C680.3225806451612,426.25,680.3225806451612,378.125,692.258064516129,378.125C704.1935483870968,378.125,704.1935483870968,450.3125,716.1290322580645,450.3125C728.0645161290322,450.3125,728.0645161290322,512.1875,740,512.1875" stroke="#1f77b4" fill="none"/><text font-family="sans-serif" font-size="10" class="labels" x="190.96774193548387" y="0" dx="0" dy="-4" text-anchor="middle"/></g></g></g><text y="4" x="4" style="font-family: Arial, sans-serif; font-size: 12px; fill: black; font-weight: bold; dominant-baseline: hanging;"/></g><g id="grid"><rect x="0" y="0" width="805" height="600" fill="none" stroke="#ccc"/></g></g></svg>